<svg xmlns="http://www.w3.org/2000/svg" width="91" height="31" viewBox="0 0 91 31">
    <path fill="#FFF" fill-rule="nonzero" d="M30.014.581v29.644h-7.166V.581h7.166zM47.472.04c7.01 0 14.685 6.781 14.685 15.461s-7.694 15.461-14.685 15.461c-7.01 0-14.685-6.781-14.685-15.461S40.462.039 47.472.039zm0 30.883c4.863 0 7.05-3.351 7.05-15.364 0-12.012-2.187-15.364-7.05-15.364-4.882 0-7.05 3.332-7.05 15.364 0 12.013 2.188 15.364 7.05 15.364zM17.458 18.892v.038l.137.407-3.496 11.431L3.32 2.964V.581h7.05l7.089 18.31zM74.83.58c7.811 0 16.09 5.464 16.09 14.86 0 9.417-8.279 14.88-16.09 14.88 7.713 0 9.002-5.58 9.002-14.763 0-9.184-1.27-14.783-9.002-14.783h-2.578v29.644h-7.03V.58h9.608zM0 29.837h7.225v.388H0v-.388z"/>
</svg>
